<svg width="145" height="49" viewBox="0 0 145 49" fill="none" xmlns="http://www.w3.org/2000/svg">
<path d="M41.3648 40.067H48.1477L52.4991 26.4058L56.8819 40.067H63.7113L69.9832 16.6581H64.3153L60.2269 34.3866L55.8906 19.6259H49.6651L45.1279 34.4324L40.9931 16.6581H35L41.3648 40.067Z" fill="#452ED9"/>
<path d="M81.968 40.7542C88.8904 40.7542 94.0937 35.6235 94.0937 28.3855C94.0937 21.1475 88.8904 15.971 81.968 15.971C75.0457 15.971 69.7959 21.1475 69.7959 28.3855C69.7959 35.6235 75.0457 40.7542 81.968 40.7542ZM75.4639 28.3855C75.4639 23.2547 78.0655 20.4145 81.968 20.4145C85.8241 20.4145 88.4258 23.2547 88.4258 28.3855C88.4258 33.4704 85.8241 36.3564 81.968 36.3564C78.0655 36.3564 75.4639 33.4704 75.4639 28.3855Z" fill="#452ED9"/>
<path d="M96.0466 49H101.575V37.0436C102.83 39.1508 105.338 40.7542 108.823 40.7542C114.862 40.7542 119.415 36.0816 119.415 28.3855C119.415 20.6894 114.862 15.971 108.823 15.971C105.338 15.971 102.83 17.4827 101.575 19.6358V16.6581L96.0466 18.1893V49ZM101.482 28.3855C101.482 23.7587 104.037 20.3687 107.708 20.3687C111.61 20.3687 113.747 23.5296 113.747 28.3855C113.747 33.2872 111.61 36.4022 107.708 36.4022C104.037 36.4022 101.482 33.0581 101.482 28.3855Z" fill="#452ED9"/>
<path d="M118.182 38.2788L124.125 39.0778L127.778 33.4246C128.986 31.5922 130.147 29.714 131.402 27.8816H131.494C132.795 29.8514 133.957 31.6838 135.258 33.7453L139.392 40.067L144.614 38.1647L135.211 23.667L145 8.86753L139.114 8L135.676 13.314C134.514 15.1006 132.981 17.4369 131.587 19.4983H131.494L127.546 13.3598L124.061 8L118.182 9.59045L127.824 23.7128L118.182 38.2788Z" fill="#452ED9"/>
<path d="M118.182 38.2788L124.125 39.0778L127.778 33.4246C128.986 31.5922 130.147 29.714 131.402 27.8816H131.494C132.795 29.8514 133.957 31.6838 135.258 33.7453L139.392 40.067L144.614 38.1647L135.211 23.667L145 8.86753L139.114 8L135.676 13.314C134.514 15.1006 132.981 17.4369 131.587 19.4983H131.494L127.546 13.3598L124.061 8L118.182 9.59045L127.824 23.7128L118.182 38.2788Z" fill="#452ED9"/>
<path d="M118.182 38.2788L124.125 39.0778L127.778 33.4246C128.986 31.5922 130.147 29.714 131.402 27.8816H131.494C132.795 29.8514 133.957 31.6838 135.258 33.7453L139.392 40.067L144.614 38.1647L135.211 23.667L145 8.86753L139.114 8L135.676 13.314C134.514 15.1006 132.981 17.4369 131.587 19.4983H131.494L127.546 13.3598L124.061 8L118.182 9.59045L127.824 23.7128L118.182 38.2788Z" fill="#452ED9"/>
<path d="M19.4782 22.9291L19.6275 23.0415C22.5372 22.3965 27.3421 20.4973 23.8576 17.9889C19.502 14.8534 15.3436 10.6125 15.3436 7.54323C15.3436 5.67984 16.2757 3.13561 23.535 3.36854C30.7943 3.60146 38.6451 7.81198 43.0007 11.9687C34.1819 2.0481 26.0802 0.340547 20.5058 0.0359567C14.9313 -0.268634 9.44233 1.33095 7.42107 6.02026C5.95137 9.42994 7.9898 13.2597 10.1276 15.2709C13.4207 18.3691 16.6792 20.8221 19.4782 22.9291Z" fill="#452ED9"/>
<path d="M23.5218 18.0709L23.3725 17.9585C20.4628 18.6035 15.6579 20.5027 19.1424 23.0111C23.498 26.1466 27.6564 30.3875 27.6564 33.4568C27.6564 35.3202 26.7243 37.8644 19.465 37.6315C12.2057 37.3985 4.35491 33.188 -0.000655081 29.0313C8.81814 38.9519 16.9198 40.6595 22.4942 40.964C28.0687 41.2686 33.5577 39.6691 35.5789 34.9797C37.0486 31.5701 35.0102 27.7403 32.8724 25.7291C29.5793 22.6309 26.3208 20.1779 23.5218 18.0709Z" fill="#452ED9"/>
<path d="M27.7027 8L9 33.2042L15.1397 34L34 8.80003L27.7027 8Z" fill="#452ED9"/>
</svg>
